<?xml version="1.0" encoding="UTF-8"?>
<!DOCTYPE svg PUBLIC "-//W3C//DTD SVG 1.1//EN" "http://www.w3.org/Graphics/SVG/1.1/DTD/svg11.dtd">
<!-- Creator: CorelDRAW 2018 (64 Bit Versão de avaliação) -->
<svg xmlns="http://www.w3.org/2000/svg" xml:space="preserve" width="259px" height="168px" version="1.1" shape-rendering="geometricPrecision" text-rendering="geometricPrecision" image-rendering="optimizeQuality" fill-rule="evenodd" clip-rule="evenodd"
viewBox="0 0 10.33 6.7"
 xmlns:xlink="http://www.w3.org/1999/xlink">
 <g id="Camada_x0020_1">
  <metadata id="CorelCorpID_0Corel-Layer"/>
  <g id="_1658611615488">
   <path fill="#C4BBE6" fill-rule="nonzero" d="M3.99 3.28l-0.34 0.35 -0.14 -0.21 -0.05 -0.07c-0.15,0.04 -0.38,-0.26 -0.47,-0.42 -0.09,-0.16 0.27,-0.41 0.27,-0.41 -0.06,-0.17 -0.29,-0.28 -0.3,-0.33 -0.01,-0.05 0.05,-0.1 0.27,0 0.21,0.1 0.4,0.46 0.4,0.46 0.04,-0.11 -0.13,-0.39 -0.1,-0.42 0.03,-0.03 0.19,0.01 0.32,0.28 0.13,0.27 0.05,0.59 0.05,0.59l0.01 0 0.08 0.18z"/>
   <path fill="#B1C3E8" fill-rule="nonzero" d="M3.25 2.49c0,0 0.25,0.29 0.23,0.41 -0.03,0.11 -0.16,-0.02 -0.16,-0.02 0,0 0.12,0.14 0.08,0.18 -0.04,0.05 -0.18,-0.07 -0.18,-0.07 0,0 0.17,0.21 0,0.18 -0.17,-0.03 -0.38,-0.35 -0.22,-0.38 0,0 -0.02,-0.23 0.13,-0.15 0,0 -0.07,-0.2 0.12,-0.15z"/>
   <path fill="#B6CAE4" fill-rule="nonzero" d="M6.34 6.7c0,0 0.28,-0.83 0.13,-1.66 0,0 0,0 0,0 0,0 0,-0.01 0,-0.01 0,-0.02 -0.01,-0.04 -0.01,-0.06 0,0 -0.17,0.14 -0.4,0.29 -0.27,0.17 -0.64,0.34 -0.92,0.26 -0.52,-0.15 -1.28,-1.15 -1.63,-1.95 0,0 0.18,-0.26 0.53,-0.34 0,0 0.7,0.93 1.32,1.16 0,0 0.33,-0.4 0.59,-0.98 0.16,-0.37 0.41,-0.61 0.72,-0.73 0.18,-0.08 0.38,-0.11 0.6,-0.12l0.54 -0.25c0,0 0.09,0 0.22,0.01 0.26,0.04 0.68,0.13 1.02,0.39 0.53,0.4 1.28,3.99 1.28,3.99l-3.99 0z"/>
   <path fill="#97B3D1" fill-rule="nonzero" d="M6.47 5.04c0,-0.03 -0.01,-0.05 -0.01,-0.07 0,0 -0.17,0.14 -0.4,0.29l0.16 -1.37c0.16,0.62 0.24,1.09 0.25,1.15z"/>
   <path fill="#CDD8E9" fill-rule="nonzero" d="M8.03 2.32c-0.08,0.54 -0.61,1.03 -1,1.02 -0.31,0 -0.35,-0.45 -0.36,-0.66 0.18,-0.08 0.38,-0.11 0.6,-0.12l0.54 -0.25c0,0 0.09,0 0.22,0.01z"/>
   <path fill="#97B3D1" fill-rule="nonzero" d="M7.11 6.16c0,0 1.22,-1.27 1.28,-2.6l0.36 1.12 -0.14 1.17 -1.5 0.31z"/>
   <path fill="#C4BBE6" fill-rule="nonzero" d="M7.08 6.7l-1.37 0c0,0 0,-0.18 0.21,-0.25 0.22,-0.06 0.35,-0.32 0.98,-0.29l0.18 0.54z"/>
   <path fill="#B6C4DD" fill-rule="nonzero" d="M8.47 5.45c0,0 -0.64,0.37 -1.65,0.63 0,0 -0.14,0.34 0.1,0.62l1.96 0 -0.41 -1.25z"/>
   <path fill="#5D7CA0" fill-rule="nonzero" d="M6.08 1.57c0,0 -0.29,-0.41 -0.26,-0.68 0.04,-0.27 0.29,-0.2 0.29,-0.2 0,0 -0.01,-0.66 0.6,-0.49 0,0 -0.02,-0.21 0.12,-0.2 0.13,0.01 0.34,0.31 0.34,0.31 0,0 0.05,-0.23 0.14,-0.17 0.09,0.05 0.12,0.29 0.31,0.4 0.18,0.11 0.3,0.26 0.15,0.71 -0.15,0.46 -0.03,0.49 -0.09,0.73 -0.05,0.22 -0.09,0.35 -0.23,0.37 -0.13,0.01 -0.66,-0.55 -0.66,-0.55l-0.71 -0.23z"/>
   <path fill="#C4BBE6" fill-rule="nonzero" d="M7.81 2.31c0,0 -0.34,0.82 -0.7,0.76 -0.18,-0.03 -0.22,-0.14 -0.22,-0.27 0,-0.16 0.07,-0.35 -0.03,-0.43l0.43 -0.61 0.09 -0.13c0,0 0.12,0.33 0.43,0.68z"/>
   <path fill="#799CBF" fill-rule="nonzero" d="M6.89 2.8c0,-0.16 0.07,-0.35 -0.03,-0.43l0.43 -0.61c0.03,0.04 0.06,0.12 0.07,0.24 0.06,0.63 -0.28,0.77 -0.47,0.8z"/>
   <path fill="#C4BBE6" fill-rule="nonzero" d="M6.04 1.25c0,0 0.11,1.06 0.54,1.3 0.38,0.2 0.84,-0.42 0.83,-0.74 0,0 0.16,-0.12 0.13,-0.32 -0.02,-0.21 -0.24,-0.14 -0.26,0.19 0,0 -0.18,-0.01 -0.21,-0.42 -0.11,0.09 -0.23,0.06 -0.35,-0.05 0,0 -0.06,0.23 -0.38,-0.04 0,0 -0.12,0.16 -0.3,0.08z"/>
   <path fill="#9ABCED" fill-rule="nonzero" d="M3.62 3.23l-3.27 0c-0.11,0 -0.19,-0.08 -0.19,-0.18l0 -1.99c0,-0.1 0.08,-0.18 0.19,-0.18l3.27 0c0.1,0 0.19,0.08 0.19,0.18l0 1.99c0,0.1 -0.09,0.18 -0.19,0.18z"/>
   <path fill="#4F7EB6" fill-rule="nonzero" d="M3.49 3.12l-3.28 0c-0.11,0 -0.21,-0.09 -0.21,-0.21l0 -1.98c0,-0.12 0.1,-0.22 0.21,-0.22l3.28 0c0.11,0 0.21,0.1 0.21,0.22l0 1.98c0,0.12 -0.1,0.21 -0.21,0.21zm-3.28 -2.35l0 0c-0.08,0 -0.15,0.07 -0.15,0.16l0 1.98c0,0.09 0.07,0.16 0.15,0.16l3.28 0c0.08,0 0.15,-0.07 0.15,-0.16l0 -1.98c0,-0.09 -0.07,-0.16 -0.15,-0.16l-3.28 0z"/>
   <path fill="#7CA5D8" fill-rule="nonzero" d="M1.47 1.96c-0.08,0.09 -0.2,0.14 -0.33,0.14 -0.26,0 -0.47,-0.21 -0.47,-0.47 0,-0.26 0.21,-0.47 0.47,-0.47 0.05,0 0.1,0.01 0.15,0.03l-0.15 0.44 0.33 0.33z"/>
   <path fill="#E83F54" fill-rule="nonzero" d="M1.67 1.6c0,0.11 -0.04,0.21 -0.11,0.28l-0.29 -0.28 0.13 -0.38c0.16,0.05 0.27,0.2 0.27,0.38z"/>
   <path fill="#9ABCED" fill-rule="nonzero" d="M3.26 2.13l-1.08 0 0 -0.91c0,-0.02 0.01,-0.03 0.03,-0.03 0.01,0 0.03,0.01 0.03,0.03l0 0.85 1.02 0c0.02,0 0.03,0.02 0.03,0.03 0,0.02 -0.01,0.03 -0.03,0.03z"/>
   <polygon fill="#9ABCED" fill-rule="nonzero" points="2.54,1.66 2.41,1.66 2.41,2.07 2.54,2.07 "/>
   <polygon fill="#E83F54" fill-rule="nonzero" points="2.83,1.45 2.69,1.45 2.69,2.07 2.83,2.07 "/>
   <polygon fill="#9ABCED" fill-rule="nonzero" points="3.11,1.76 2.97,1.76 2.97,2.07 3.11,2.07 "/>
   <path fill="#9ABCED" fill-rule="nonzero" d="M1.35 2.55l-0.65 0c-0.03,0 -0.05,-0.02 -0.05,-0.05 0,-0.02 0.02,-0.04 0.05,-0.04l0.65 0c0.02,0 0.05,0.02 0.05,0.04 0,0.03 -0.03,0.05 -0.05,0.05z"/>
   <path fill="#9ABCED" fill-rule="nonzero" d="M2.34 2.55l-0.65 0c-0.03,0 -0.05,-0.02 -0.05,-0.05 0,-0.02 0.02,-0.04 0.05,-0.04l0.65 0c0.03,0 0.05,0.02 0.05,0.04 0,0.03 -0.02,0.05 -0.05,0.05z"/>
   <path fill="#9ABCED" fill-rule="nonzero" d="M3.27 2.55l-0.65 0c-0.03,0 -0.05,-0.02 -0.05,-0.05 0,-0.02 0.02,-0.04 0.05,-0.04l0.65 0c0.03,0 0.05,0.02 0.05,0.04 0,0.03 -0.02,0.05 -0.05,0.05z"/>
   <path fill="#9ABCED" fill-rule="nonzero" d="M1.77 2.9l-0.65 0c-0.02,0 -0.04,-0.02 -0.04,-0.05 0,-0.03 0.02,-0.05 0.04,-0.05l0.65 0c0.03,0 0.05,0.02 0.05,0.05 0,0.03 -0.02,0.05 -0.05,0.05z"/>
   <path fill="#9ABCED" fill-rule="nonzero" d="M2.71 2.9l-0.65 0c-0.03,0 -0.05,-0.02 -0.05,-0.05 0,-0.03 0.02,-0.05 0.05,-0.05l0.65 0c0.02,0 0.04,0.02 0.04,0.05 0,0.03 -0.02,0.05 -0.04,0.05z"/>
  </g>
 </g>
</svg>
