<?xml version="1.0" encoding="UTF-8"?>
<!DOCTYPE svg PUBLIC "-//W3C//DTD SVG 1.1//EN" "http://www.w3.org/Graphics/SVG/1.1/DTD/svg11.dtd">
<!-- Creator: CorelDRAW 2018 (64 Bit Versão de avaliação) -->
<svg xmlns="http://www.w3.org/2000/svg" xml:space="preserve" width="311px" height="169px" version="1.1" shape-rendering="geometricPrecision" text-rendering="geometricPrecision" image-rendering="optimizeQuality" fill-rule="evenodd" clip-rule="evenodd"
viewBox="0 0 22.48 12.24"
 xmlns:xlink="http://www.w3.org/1999/xlink">
 <defs>
      <linearGradient id="id0" gradientUnits="userSpaceOnUse" x1="12.54" y1="11.57" x2="12.54" y2="7.74">
       <stop offset="0" stop-opacity="1" stop-color="#34486C"/>
       <stop offset="1" stop-opacity="1" stop-color="#3B5580"/>
      </linearGradient>
      <linearGradient id="id1" gradientUnits="userSpaceOnUse" x1="10.23" y1="11.87" x2="10.23" y2="10.84">
       <stop offset="0" stop-opacity="1" stop-color="#34486C"/>
       <stop offset="1" stop-opacity="1" stop-color="#3B5580"/>
      </linearGradient>
      <linearGradient id="id2" gradientUnits="userSpaceOnUse" x1="14.55" y1="11.87" x2="14.55" y2="10.84">
       <stop offset="0" stop-opacity="1" stop-color="#34486C"/>
       <stop offset="1" stop-opacity="1" stop-color="#3B5580"/>
      </linearGradient>
      <linearGradient id="id3" gradientUnits="userSpaceOnUse" x1="13.29" y1="11.65" x2="11.87" y2="9.39">
       <stop offset="0" stop-opacity="1" stop-color="#5365AD"/>
       <stop offset="1" stop-opacity="1" stop-color="#687CBC"/>
      </linearGradient>
       <linearGradient id="id4" gradientUnits="userSpaceOnUse" x1="12.3" y1="6.33" x2="12.25" y2="4.6">
        <stop offset="0" stop-opacity="1" stop-color="#4B3737"/>
        <stop offset="1" stop-opacity="1" stop-color="#664343"/>
       </linearGradient>
      <linearGradient id="id5" gradientUnits="userSpaceOnUse" x1="17.62" y1="11.31" x2="18.44" y2="11.31">
       <stop offset="0" stop-opacity="1" stop-color="#34486C"/>
       <stop offset="1" stop-opacity="1" stop-color="#3B5580"/>
      </linearGradient>
      <linearGradient id="id6" gradientUnits="userSpaceOnUse" x1="19.01" y1="8.29" x2="17.77" y2="10.76">
       <stop offset="0" stop-opacity="1" stop-color="#E2E8F5"/>
       <stop offset="1" stop-opacity="1" stop-color="#FEFEFE"/>
      </linearGradient>
 </defs>
 <g id="Camada_x0020_1">
  <metadata id="CorelCorpID_0Corel-Layer"/>
  <g id="_3004758563648">
   <g>
    <path fill="#E4EBF6" fill-rule="nonzero" d="M22.48 7.12c0,0.72 -0.05,1.39 -0.14,1.97 0,0.04 -0.01,0.09 -0.02,0.13 -0.04,0.29 -0.1,0.55 -0.17,0.8 -0.01,0.04 -0.02,0.08 -0.03,0.12 -0.25,0.87 -0.61,1.46 -0.98,1.68l-15.9 0c0,0 -1.36,-1.17 -1.63,-2.85 -0.01,-0.04 -0.01,-0.09 -0.02,-0.13 -0.1,-0.83 0.07,-1.79 0.8,-2.78 0.33,-0.45 0.77,-0.76 1.28,-0.98 0.03,-0.01 0.07,-0.03 0.11,-0.04 0.75,-0.3 1.63,-0.39 2.51,-0.4 0.05,0 0.09,0 0.13,0 0.53,-0.01 1.05,0.02 1.55,0.04 0.05,0 0.09,0 0.14,0 0.8,0.04 1.52,0.06 2.05,-0.04l0 0c0.05,0 0.09,-0.02 0.14,-0.03l0 0c0.58,-0.14 0.86,-0.47 0.66,-1.18 -0.4,-1.37 0.01,-2.38 0.9,-2.93 0.04,-0.03 0.09,-0.06 0.14,-0.09 0.5,-0.27 1.14,-0.41 1.85,-0.41 0.05,0 0.11,0 0.16,0 0.61,0.02 1.27,0.14 1.97,0.37 0.37,0.13 0.72,0.28 1.04,0.45 0.04,0.03 0.08,0.05 0.12,0.07 0.63,0.37 1.16,0.83 1.6,1.35 0.03,0.03 0.06,0.07 0.08,0.1 1.15,1.41 1.65,3.23 1.66,4.78z"/>
    <path fill="white" fill-rule="nonzero" d="M22.15 10.02c-0.01,0.04 -0.02,0.08 -0.03,0.12 -0.24,-0.08 -0.48,-0.19 -0.74,-0.33 -1.16,-0.63 -2.65,-2.04 -3.1,-5.17 -0.19,-1.35 0.06,-2.63 0.74,-3.82 0.04,0.03 0.08,0.05 0.12,0.07 -0.6,1.04 -0.94,2.28 -0.73,3.73 0.44,3.08 1.89,4.46 3.03,5.08 0.24,0.13 0.48,0.24 0.71,0.32z"/>
    <path fill="white" fill-rule="nonzero" d="M22.34 9.09c0,0.04 -0.01,0.09 -0.02,0.13 -0.73,-0.34 -1.66,-1.1 -2.1,-2.73 -0.41,-1.58 -0.25,-2.99 0.52,-4.25 0.03,0.03 0.06,0.07 0.08,0.1 -0.72,1.23 -0.88,2.59 -0.47,4.12 0.41,1.56 1.29,2.29 1.99,2.63z"/>
    <path fill="white" fill-rule="nonzero" d="M15.39 2.67c0.06,2.08 -0.17,3.42 -0.76,4.35 -0.62,0.98 -1.66,1.57 -3.36,1.91 -0.31,0.07 -0.63,0.1 -0.93,0.1 -0.96,0 -1.86,-0.31 -2.65,-0.92 -0.92,-0.71 -1.62,-1.78 -2.02,-3.03 0.03,-0.01 0.07,-0.03 0.11,-0.04 0.4,1.23 1.09,2.28 1.99,2.97 1.01,0.78 2.21,1.06 3.48,0.8 3.16,-0.65 4.13,-2.14 4.01,-6.14 -0.03,-1.13 0.17,-2.03 0.59,-2.67 0.05,0 0.11,0 0.16,0 -0.45,0.63 -0.65,1.52 -0.62,2.67z"/>
    <path fill="white" fill-rule="nonzero" d="M11.45 6.97c-0.13,0.02 -0.27,0.03 -0.41,0.03 -1.01,0 -2.18,-0.62 -2.75,-2.36 0.05,0 0.09,0 0.13,0 0.63,1.87 1.97,2.37 3.01,2.2 1.4,-0.23 2.75,-1.67 2.48,-3.89 -0.11,-0.95 -0.11,-1.77 -0.05,-2.45 0.04,-0.03 0.09,-0.06 0.14,-0.09 -0.07,0.7 -0.07,1.54 0.04,2.52 0.27,2.3 -1.13,3.8 -2.59,4.04z"/>
    <path fill="white" fill-rule="nonzero" d="M12.3 4.61c-0.05,0.23 -0.14,0.46 -0.28,0.65 -0.2,0.25 -0.47,0.4 -0.82,0.45 -0.04,0 -0.08,0 -0.12,0 -0.22,0 -0.41,-0.07 -0.59,-0.21 -0.23,-0.2 -0.4,-0.5 -0.52,-0.82 0.05,0 0.09,0 0.14,0 0.11,0.29 0.26,0.55 0.46,0.72 0.18,0.15 0.39,0.21 0.61,0.18 0.31,-0.04 0.56,-0.17 0.73,-0.4 0.13,-0.16 0.2,-0.35 0.25,-0.54l0 0c0.05,0 0.09,-0.02 0.14,-0.03z"/>
    <path fill="white" fill-rule="nonzero" d="M7.35 11.82l-0.14 0c-0.57,-1.31 -1.39,-2.18 -2.45,-2.59 -0.38,-0.15 -0.77,-0.23 -1.15,-0.26 -0.01,-0.04 -0.01,-0.09 -0.02,-0.13 0.4,0.03 0.81,0.11 1.22,0.27 1.1,0.43 1.95,1.34 2.54,2.71z"/>
   </g>
   <g>
    <g>
     <path fill="url(#id0)" fill-rule="nonzero" d="M15.86 11.15l0 0c-0.02,0.07 -0.05,0.14 -0.08,0.2 -0.31,0.57 -1.64,0.47 -1.64,0.47l-3.05 0c-1.25,0 -1.76,-0.03 -1.88,-0.42 -0.01,-0.02 -0.01,-0.04 -0.02,-0.07 -0.08,-0.45 0.34,-1.94 1.13,-2.96 0.4,-0.52 0.82,-0.79 1.19,-0.94 0.35,-0.14 0.66,-0.15 0.88,-0.15 0.39,0 0.7,0.03 0.96,0.09 0.71,0.16 1.09,0.57 1.64,1.28 0.68,0.87 1.02,1.89 0.87,2.5z"/>
     <path fill="#1F385D" fill-rule="nonzero" fill-opacity="0.219608" d="M10.51 10.79c0.33,-0.52 0.43,-1.24 0.52,-1.97l0.29 1.48 2.48 0 0.46 -1.48c-0.01,0.69 0.08,1.37 0.41,2.02 0,0 -1.62,1.84 -4.16,-0.05z"/>
     <path fill="url(#id1)" fill-rule="nonzero" d="M11.26 11.82l-0.17 0c-1.25,0 -1.76,-0.03 -1.88,-0.42 -0.06,-0.31 0.02,-0.63 0.4,-0.73 0.59,-0.15 1.61,0.45 1.61,0.45l0.04 0.7z"/>
     <path fill="url(#id2)" fill-rule="nonzero" d="M15.86 11.15c0,0 0,0 0,0 -0.02,0.07 -0.05,0.14 -0.08,0.2 -0.31,0.57 -1.64,0.47 -1.64,0.47l-0.91 0 0.12 -0.76c0,0 1.6,-0.74 2.17,-0.51 0.28,0.11 0.37,0.35 0.34,0.6z"/>
     <path fill="#1F385D" fill-rule="nonzero" d="M13.35 7.37c-0.02,0.35 -0.17,1.01 -0.89,1.01 -0.76,0 -0.92,-0.65 -0.95,-0.95 0.35,-0.14 0.66,-0.15 0.88,-0.15 0.39,0 0.7,0.03 0.96,0.09z"/>
    </g>
    <g>
     <path fill="white" fill-rule="nonzero" d="M14.01 11.82l-2.92 0c-0.07,0 -0.12,-0.05 -0.12,-0.12 0,-0.07 0.05,-0.13 0.12,-0.13l2.92 0c0.07,0 0.13,0.06 0.13,0.13 0,0.07 -0.06,0.12 -0.13,0.12z"/>
     <path fill="url(#id3)" fill-rule="nonzero" d="M14.36 9.63l-0.01 0.07 0 0 -0.3 1.87 -2.97 0 -0.3 -1.94c-0.01,-0.09 0.06,-0.18 0.16,-0.18l3.27 0c0.09,0 0.17,0.09 0.15,0.18z"/>
     <path fill="#3150BC" fill-rule="nonzero" d="M14.35 9.7l-0.3 1.87 -2.96 0 1.01 -0.1c1.02,-0.11 1.9,-0.8 2.25,-1.77z"/>
    </g>
    <g>
     <g>
      <path fill="#FDB19E" fill-rule="nonzero" d="M12.45 8.11l-0.02 0c-0.12,0 -0.21,-0.03 -0.29,-0.06 -0.19,-0.09 -0.3,-0.28 -0.3,-0.49 0.01,-0.02 0.01,-0.04 0.01,-0.06 0,-0.17 -0.01,-0.31 -0.01,-0.31l0 -0.08 1.07 -0.05c0,0.16 0.02,0.3 0.04,0.41 0,0 0,0 0,0 0.06,0.32 -0.18,0.63 -0.5,0.64z"/>
      <path fill="#FF8569" fill-rule="nonzero" d="M12.95 7.47c-0.45,0.52 -0.91,0.21 -1.1,0.03 0,-0.17 -0.01,-0.31 -0.01,-0.31l0 -0.08 1.07 -0.05c0,0.16 0.02,0.3 0.04,0.41z"/>
     </g>
     <g>
      <path fill="#FDB19E" fill-rule="nonzero" d="M11.51 6.59c0,0 0.33,0.94 0.88,0.94 0.56,0 0.79,-1.01 0.79,-1.01l0 -0.88 -1.71 0 0.04 0.95z"/>
      <path fill="#FDB19E" fill-rule="nonzero" d="M11.33 6.06c0,0 -0.16,0.03 -0.14,0.22 0.03,0.19 0.2,0.42 0.34,0.3l-0.2 -0.52z"/>
      <path fill="#FDB19E" fill-rule="nonzero" d="M13.31 5.99c0,0 0.16,0 0.16,0.19 0,0.19 -0.14,0.44 -0.29,0.34l0.13 -0.53z"/>
      <path fill="url(#id4)" fill-rule="nonzero" d="M13.31 5.99c0,0 -0.06,0.32 -0.13,0.53 0,0 -0.13,-0.03 -0.18,-0.37 0,0 -0.28,0.05 -0.46,-0.21 0,0 -0.04,0.26 -0.31,0.07 -0.19,0.15 -0.4,0.17 -0.65,0.07 0,0 0.04,0.35 -0.07,0.51 0,0 -0.04,-0.14 -0.18,-0.53 0,0 -0.06,0.01 -0.1,0.06 0,0 -0.29,-0.57 -0.15,-0.85 0.14,-0.28 0.32,-0.17 0.32,-0.17 0,0 -0.07,-0.38 0.34,-0.51 0.41,-0.14 0.41,-0.33 0.48,-0.29 0.06,0.04 0.09,0.17 0.09,0.17 0,0 0.7,-0.07 0.89,0.69 0,0 0.51,0.01 0.21,0.87 0,0 -0.02,-0.04 -0.1,-0.04z"/>
     </g>
    </g>
   </g>
   <g>
    <path fill="#9ABCED" fill-rule="nonzero" fill-opacity="0.600000" d="M10.58 6.78l-2.67 0c-0.09,0 -0.16,0.07 -0.16,0.16l0 1.59c0,0.09 0.07,0.16 0.16,0.16l1.84 0 0.48 0.42c0.04,0.04 0.09,0 0.08,-0.05l-0.13 -0.37 0.4 0c0.08,0 0.15,-0.07 0.15,-0.16l0 -1.59c0,-0.09 -0.07,-0.16 -0.15,-0.16z"/>
    <g>
     <path fill="#9ABCED" fill-rule="nonzero" d="M8.74 7.21l-0.62 0c-0.02,0 -0.04,-0.02 -0.04,-0.04 0,-0.03 0.02,-0.05 0.04,-0.05l0.62 0c0.02,0 0.04,0.02 0.04,0.05 0,0.02 -0.02,0.04 -0.04,0.04z"/>
     <path fill="#9ABCED" fill-rule="nonzero" d="M10.25 7.57l-1.78 0c-0.02,0 -0.04,-0.02 -0.04,-0.04 0,-0.02 0.02,-0.04 0.04,-0.04l1.78 0c0.03,0 0.04,0.02 0.04,0.04 0,0.02 -0.01,0.04 -0.04,0.04z"/>
     <path fill="#9ABCED" fill-rule="nonzero" d="M10.25 7.83l-2.13 0c-0.02,0 -0.04,-0.02 -0.04,-0.04 0,-0.03 0.02,-0.04 0.04,-0.04l2.13 0c0.03,0 0.04,0.01 0.04,0.04 0,0.02 -0.01,0.04 -0.04,0.04z"/>
     <path fill="#9ABCED" fill-rule="nonzero" d="M10.25 8.09l-2.13 0c-0.02,0 -0.04,-0.02 -0.04,-0.04 0,-0.03 0.02,-0.05 0.04,-0.05l2.13 0c0.03,0 0.04,0.02 0.04,0.05 0,0.02 -0.01,0.04 -0.04,0.04z"/>
     <path fill="#9ABCED" fill-rule="nonzero" d="M10.25 8.35l-2.13 0c-0.02,0 -0.04,-0.02 -0.04,-0.05 0,-0.02 0.02,-0.04 0.04,-0.04l2.13 0c0.03,0 0.04,0.02 0.04,0.04 0,0.03 -0.01,0.05 -0.04,0.05z"/>
    </g>
   </g>
   <g>
    <path fill="#C1C8D3" fill-rule="nonzero" d="M22.41 12.24l-19.37 0c-0.04,0 -0.07,-0.03 -0.07,-0.07l0 -0.28c0,-0.03 0.03,-0.07 0.07,-0.07l19.37 0c0.04,0 0.07,0.04 0.07,0.07l0 0.28c0,0.04 -0.03,0.07 -0.07,0.07z"/>
    <g>
     <path fill="url(#id5)" fill-rule="nonzero" d="M18.44 10.8l-0.82 0 0 0.72c0,0.17 0.13,0.3 0.3,0.3l0.22 0c0.17,0 0.3,-0.13 0.3,-0.3l0 -0.72z"/>
     <path fill="url(#id6)" fill-rule="nonzero" d="M17.88 10.8l0 -0.22c0,-0.03 0.03,-0.06 0.06,-0.06l0.09 0c0.03,0 0.06,-0.03 0.06,-0.07l0 -0.08c0,-0.04 -0.03,-0.07 -0.06,-0.07l-0.27 0c-0.19,0 -0.34,-0.15 -0.34,-0.33 0,-0.19 0.15,-0.34 0.34,-0.34l0.36 0c0.03,0 0.06,-0.03 0.06,-0.06l0 -0.03c0,-0.19 0.16,-0.35 0.35,-0.35 0.19,0 0.34,0.16 0.34,0.35 0,0.2 -0.16,0.37 -0.37,0.37l-0.63 0c-0.03,0 -0.06,0.03 -0.06,0.07 0,0.03 0.03,0.06 0.06,0.06l0.34 0c0.13,0 0.23,0.1 0.23,0.23l0 0.14c0,0.13 -0.1,0.23 -0.23,0.23 -0.03,0 -0.06,0.03 -0.06,0.07l0 0.09 -0.27 0z"/>
    </g>
   </g>
   <path fill="#9ABCED" fill-rule="nonzero" fill-opacity="0.600000" d="M6.32 4.53l-2.17 0c-0.08,0 -0.15,-0.06 -0.15,-0.15l0 -3.25c0,-0.09 0.07,-0.16 0.15,-0.16l2.17 0c0.09,0 0.16,0.07 0.16,0.16l0 3.25c0,0.09 -0.07,0.15 -0.16,0.15z"/>
   <path fill="#4F7EB6" fill-rule="nonzero" d="M6.19 4.43l-2.18 0c-0.1,0 -0.18,-0.08 -0.18,-0.19l0 -3.25c0,-0.1 0.08,-0.19 0.18,-0.19l2.18 0c0.1,0 0.18,0.09 0.18,0.19l0 3.25c0,0.11 -0.08,0.19 -0.18,0.19zm-2.18 -3.56l0 0c-0.06,0 -0.12,0.05 -0.12,0.12l0 3.25c0,0.07 0.06,0.12 0.12,0.12l2.18 0c0.06,0 0.12,-0.05 0.12,-0.12l0 -3.25c0,-0.07 -0.06,-0.12 -0.12,-0.12l-2.18 0z"/>
   <path fill="#7CA5D8" fill-rule="nonzero" d="M5.12 2.44l-0.03 0.03c-0.02,0.01 -0.05,0.01 -0.07,-0.01l-0.32 -0.36 0.11 -0.09 0.32 0.36c0.01,0.02 0.01,0.05 -0.01,0.07z"/>
   <path fill="#7CA5D8" fill-rule="nonzero" d="M4.59 1.44c-0.2,0 -0.36,0.17 -0.36,0.37 0,0.2 0.16,0.37 0.36,0.37 0.21,0 0.37,-0.17 0.37,-0.37 0,-0.2 -0.16,-0.37 -0.37,-0.37zm0 0.62l0 0c-0.13,0 -0.25,-0.11 -0.25,-0.25 0,-0.14 0.12,-0.25 0.25,-0.25 0.14,0 0.25,0.11 0.25,0.25 0,0.14 -0.11,0.25 -0.25,0.25z"/>
   <path fill="#9ABCED" fill-rule="nonzero" d="M6.08 1.65l-0.58 0c-0.04,0 -0.07,-0.03 -0.07,-0.07 0,-0.04 0.03,-0.07 0.07,-0.07l0.58 0c0.03,0 0.06,0.03 0.06,0.07 0,0.04 -0.03,0.07 -0.06,0.07z"/>
   <path fill="#9ABCED" fill-rule="nonzero" d="M6.08 1.99l-0.58 0c-0.04,0 -0.07,-0.03 -0.07,-0.07 0,-0.03 0.03,-0.06 0.07,-0.06l0.58 0c0.03,0 0.06,0.03 0.06,0.06 0,0.04 -0.03,0.07 -0.06,0.07z"/>
   <path fill="#9ABCED" fill-rule="nonzero" d="M6.08 2.31l-0.58 0c-0.04,0 -0.07,-0.03 -0.07,-0.07 0,-0.03 0.03,-0.06 0.07,-0.06l0.58 0c0.03,0 0.06,0.03 0.06,0.06 0,0.04 -0.03,0.07 -0.06,0.07z"/>
   <path fill="#9ABCED" fill-rule="nonzero" d="M5.36 3.2l-0.9 0c-0.04,0 -0.07,-0.04 -0.07,-0.08 0,-0.04 0.03,-0.08 0.07,-0.08l0.9 0c0.04,0 0.07,0.04 0.07,0.08 0,0.04 -0.03,0.08 -0.07,0.08z"/>
   <path fill="#9ABCED" fill-rule="nonzero" d="M5.36 3.67l-0.9 0c-0.04,0 -0.07,-0.03 -0.07,-0.08 0,-0.04 0.03,-0.07 0.07,-0.07l0.9 0c0.04,0 0.07,0.03 0.07,0.07 0,0.05 -0.03,0.08 -0.07,0.08z"/>
   <path fill="#9ABCED" fill-rule="nonzero" d="M5.36 4.14l-0.9 0c-0.04,0 -0.07,-0.03 -0.07,-0.07 0,-0.04 0.03,-0.08 0.07,-0.08l0.9 0c0.04,0 0.07,0.04 0.07,0.08 0,0.04 -0.03,0.07 -0.07,0.07z"/>
   <path fill="#9ABCED" fill-rule="nonzero" d="M6.05 3.12c0,0.07 -0.05,0.12 -0.12,0.12 -0.06,0 -0.12,-0.05 -0.12,-0.12 0,-0.07 0.06,-0.12 0.12,-0.12 0.07,0 0.12,0.05 0.12,0.12z"/>
   <path fill="#9ABCED" fill-rule="nonzero" d="M6.05 3.59c0,0.07 -0.05,0.13 -0.12,0.13 -0.06,0 -0.12,-0.06 -0.12,-0.13 0,-0.06 0.06,-0.12 0.12,-0.12 0.07,0 0.12,0.06 0.12,0.12z"/>
   <path fill="#9ABCED" fill-rule="nonzero" d="M6.05 4.07c0,0.06 -0.05,0.12 -0.12,0.12 -0.06,0 -0.12,-0.06 -0.12,-0.12 0,-0.07 0.06,-0.12 0.12,-0.12 0.07,0 0.12,0.05 0.12,0.12z"/>
   <path fill="#9ABCED" fill-rule="nonzero" fill-opacity="0.600000" d="M16.95 4.58l-3.98 0c-0.15,0 -0.27,-0.11 -0.27,-0.26l0 -2.64c0,-0.15 0.12,-0.27 0.27,-0.27l3.98 0c0.14,0 0.26,0.12 0.26,0.27l0 2.64c0,0.15 -0.12,0.26 -0.26,0.26z"/>
   <path fill="#4F7EB6" fill-rule="nonzero" d="M17.09 4.47l-3.99 0c-0.16,0 -0.29,-0.13 -0.29,-0.3l0 -2.64c0,-0.16 0.13,-0.29 0.29,-0.29l3.99 0c0.16,0 0.29,0.13 0.29,0.29l0 2.64c0,0.17 -0.13,0.3 -0.29,0.3zm-3.99 -3.17l0 0c-0.12,0 -0.23,0.1 -0.23,0.23l0 2.64c0,0.13 0.11,0.24 0.23,0.24l3.99 0c0.12,0 0.23,-0.11 0.23,-0.24l0 -2.64c0,-0.13 -0.11,-0.23 -0.23,-0.23l-3.99 0z"/>
   <path fill="#9ABCED" fill-rule="nonzero" fill-opacity="0.501961" d="M15.47 2.06l-2.2 0c-0.07,0 -0.12,-0.05 -0.12,-0.12 0,-0.06 0.05,-0.11 0.12,-0.11l2.2 0c0.07,0 0.12,0.05 0.12,0.11 0,0.07 -0.05,0.12 -0.12,0.12z"/>
   <path fill="#7CA5D8" fill-rule="nonzero" fill-opacity="0.709804" d="M15.51 3.76l-2.28 0c-0.04,0 -0.08,-0.04 -0.08,-0.09l0 -1.12c0,-0.05 0.04,-0.08 0.08,-0.08l2.28 0c0.04,0 0.08,0.03 0.08,0.08l0 1.12c0,0.05 -0.04,0.09 -0.08,0.09z"/>
   <path fill="#9ABCED" fill-rule="nonzero" fill-opacity="0.501961" d="M16.65 2.06l-0.66 0c-0.06,0 -0.11,-0.05 -0.11,-0.12 0,-0.06 0.05,-0.11 0.11,-0.11l0.66 0c0.06,0 0.11,0.05 0.11,0.11 0,0.07 -0.05,0.12 -0.11,0.12z"/>
   <path fill="#9ABCED" fill-rule="nonzero" fill-opacity="0.501961" d="M16.69 2.67l-0.69 0c-0.04,0 -0.07,-0.03 -0.07,-0.07 0,-0.04 0.03,-0.07 0.07,-0.07l0.69 0c0.04,0 0.07,0.03 0.07,0.07 0,0.04 -0.03,0.07 -0.07,0.07z"/>
   <path fill="#9ABCED" fill-rule="nonzero" fill-opacity="0.501961" d="M16.69 3l-0.69 0c-0.04,0 -0.07,-0.04 -0.07,-0.08 0,-0.04 0.03,-0.07 0.07,-0.07l0.69 0c0.04,0 0.07,0.03 0.07,0.07 0,0.04 -0.03,0.08 -0.07,0.08z"/>
   <path fill="#9ABCED" fill-rule="nonzero" fill-opacity="0.501961" d="M16.69 3.32l-0.69 0c-0.04,0 -0.07,-0.03 -0.07,-0.07 0,-0.04 0.03,-0.07 0.07,-0.07l0.69 0c0.04,0 0.07,0.03 0.07,0.07 0,0.04 -0.03,0.07 -0.07,0.07z"/>
   <path fill="#9ABCED" fill-rule="nonzero" fill-opacity="0.501961" d="M16.69 3.64l-0.69 0c-0.04,0 -0.07,-0.03 -0.07,-0.07 0,-0.04 0.03,-0.07 0.07,-0.07l0.69 0c0.04,0 0.07,0.03 0.07,0.07 0,0.04 -0.03,0.07 -0.07,0.07z"/>
   <path fill="#9ABCED" fill-rule="nonzero" fill-opacity="0.501961" d="M16.22 4.26l-2.54 0c-0.05,0 -0.09,-0.04 -0.09,-0.1 0,-0.05 0.04,-0.09 0.09,-0.09l2.54 0c0.06,0 0.1,0.04 0.1,0.09 0,0.06 -0.04,0.1 -0.1,0.1z"/>
   <path fill="#9ABCED" fill-rule="nonzero" fill-opacity="0.600000" d="M4.17 7.83l-3.77 0c-0.12,0 -0.21,-0.1 -0.21,-0.22l0 -2.28c0,-0.12 0.09,-0.21 0.21,-0.21l3.77 0c0.12,0 0.21,0.09 0.21,0.21l0 2.28c0,0.12 -0.09,0.22 -0.21,0.22z"/>
   <path fill="#4F7EB6" fill-rule="nonzero" d="M4.01 7.7l-3.77 0c-0.13,0 -0.24,-0.11 -0.24,-0.24l0 -2.28c0,-0.14 0.11,-0.25 0.24,-0.25l3.77 0c0.14,0 0.25,0.11 0.25,0.25l0 2.28c0,0.13 -0.11,0.24 -0.25,0.24zm-3.77 -2.71l0 0c-0.1,0 -0.18,0.09 -0.18,0.19l0 2.28c0,0.1 0.08,0.18 0.18,0.18l3.77 0c0.1,0 0.18,-0.08 0.18,-0.18l0 -2.28c0,-0.1 -0.08,-0.19 -0.18,-0.19l-3.77 0z"/>
   <path fill="#7CA5D8" fill-rule="nonzero" fill-opacity="0.501961" d="M1.7 6.37c-0.1,0.1 -0.24,0.16 -0.39,0.16 -0.29,0 -0.54,-0.24 -0.54,-0.54 0,-0.3 0.25,-0.54 0.54,-0.54 0.06,0 0.12,0.01 0.18,0.03l-0.18 0.51 0.39 0.38z"/>
   <path fill="#E83F54" fill-rule="nonzero" fill-opacity="0.501961" d="M1.93 5.95c0,0.12 -0.06,0.24 -0.14,0.32l-0.32 -0.32 0.14 -0.44c0.18,0.06 0.32,0.23 0.32,0.44z"/>
   <path fill="#9ABCED" fill-rule="nonzero" fill-opacity="0.501961" d="M3.75 6.56l-1.24 0 0 -1.05c0,-0.02 0.01,-0.03 0.03,-0.03 0.02,0 0.03,0.01 0.03,0.03l0 0.99 1.18 0c0.02,0 0.03,0.01 0.03,0.03 0,0.02 -0.01,0.03 -0.03,0.03z"/>
   <polygon fill="#9ABCED" fill-rule="nonzero" fill-opacity="0.501961" points="2.93,6.02 2.77,6.02 2.77,6.5 2.93,6.5 "/>
   <polygon fill="#E83F54" fill-rule="nonzero" fill-opacity="0.501961" points="3.26,5.78 3.1,5.78 3.1,6.5 3.26,6.5 "/>
   <polygon fill="#9ABCED" fill-rule="nonzero" fill-opacity="0.501961" points="3.58,6.14 3.42,6.14 3.42,6.5 3.58,6.5 "/>
   <path fill="#9ABCED" fill-rule="nonzero" fill-opacity="0.501961" d="M1.55 7.05l-0.75 0c-0.03,0 -0.05,-0.03 -0.05,-0.06 0,-0.03 0.02,-0.05 0.05,-0.05l0.75 0c0.03,0 0.06,0.02 0.06,0.05 0,0.03 -0.03,0.06 -0.06,0.06z"/>
   <path fill="#9ABCED" fill-rule="nonzero" fill-opacity="0.501961" d="M2.69 7.05l-0.75 0c-0.03,0 -0.05,-0.03 -0.05,-0.06 0,-0.03 0.02,-0.05 0.05,-0.05l0.75 0c0.03,0 0.06,0.02 0.06,0.05 0,0.03 -0.03,0.06 -0.06,0.06z"/>
   <path fill="#9ABCED" fill-rule="nonzero" fill-opacity="0.501961" d="M3.76 7.05l-0.74 0c-0.03,0 -0.06,-0.03 -0.06,-0.06 0,-0.03 0.03,-0.05 0.06,-0.05l0.74 0c0.04,0 0.06,0.02 0.06,0.05 0,0.03 -0.02,0.06 -0.06,0.06z"/>
  </g>
 </g>
</svg>
