<?xml version="1.0" encoding="UTF-8"?>
<!DOCTYPE svg PUBLIC "-//W3C//DTD SVG 1.1//EN" "http://www.w3.org/Graphics/SVG/1.1/DTD/svg11.dtd">
<!-- Creator: CorelDRAW 2018 (64 Bit Versão de avaliação) -->
<svg xmlns="http://www.w3.org/2000/svg" xml:space="preserve" width="211px" height="178px" version="1.1" shape-rendering="geometricPrecision" text-rendering="geometricPrecision" image-rendering="optimizeQuality" fill-rule="evenodd" clip-rule="evenodd"
viewBox="0 0 9.04 7.66"
 xmlns:xlink="http://www.w3.org/1999/xlink">
 <g id="Camada_x0020_1">
  <metadata id="CorelCorpID_0Corel-Layer"/>
  <g id="_1658771220752">
   <path fill="#5D7CA0" fill-rule="nonzero" d="M5.21 6.4c0,0 -0.5,0.84 -0.68,1.26l1.79 0c0,0 0.1,-0.5 0.28,-0.98l-1.39 -0.28z"/>
   <path fill="#799CBF" fill-rule="nonzero" d="M5.91 6.59c0.1,0.32 0.25,0.6 0.47,0.81l-0.06 0.26 2.17 -0.03 -0.24 -1.48 -2.34 0.44z"/>
   <path fill="#799CBF" fill-rule="nonzero" d="M2.51 1.96c0,0 -0.07,-0.45 -0.21,-0.61 -0.14,-0.16 -0.53,-0.39 -0.58,-0.31 -0.04,0.09 0.35,0.35 0.35,0.35 0,0 -0.18,-0.04 -0.33,0.22 -0.15,0.26 0.33,0.46 0.33,0.46l0.1 0.22 0.39 -0.25 -0.05 -0.08z"/>
   <path fill="#C4BBE6" fill-rule="nonzero" d="M2.02 1.4c0,0 0.21,0.22 0.18,0.28 -0.03,0.07 -0.15,-0.03 -0.15,-0.03 0,0 0.1,0.15 0.02,0.18 -0.07,0.04 -0.19,-0.09 -0.19,-0.09 0,0 0.1,0.14 0.04,0.16 -0.06,0.03 -0.36,-0.18 -0.3,-0.23 0.05,-0.05 0.08,-0.01 0.08,-0.01 0,0 -0.06,-0.11 0,-0.14 0.07,-0.04 0.1,0.03 0.1,0.03 0,0 -0.05,-0.08 -0.01,-0.12 0.04,-0.03 0.13,0.01 0.13,0.01 0,0 -0.03,-0.13 0.1,-0.04z"/>
   <path fill="#C4BBE6" fill-rule="nonzero" d="M2.22 1.39c0.06,-0.02 0.2,0.12 0.2,0.12 0.05,0.07 0.06,0.2 0.06,0.27 0.01,0.17 0.08,0.26 0.08,0.26l-0.2 0.13c-0.15,-0.2 -0.1,-0.45 -0.08,-0.54 -0.07,-0.11 -0.1,-0.23 -0.06,-0.24z"/>
   <path fill="#B6CAE4" fill-rule="nonzero" d="M2.09 2.33c0,0 0.65,1.75 1.69,1.9 0.47,0.07 0.82,0.08 1.07,0.06 0.29,-0.01 0.43,-0.06 0.44,-0.06 0,0 0,0 0,0 0,0 0.29,0.53 0.1,1.29 -0.18,0.77 -0.25,0.93 -0.25,0.93 0,0 1.4,1.03 2.54,0.09l0.57 -0.39 -0.07 -0.53 -0.12 -0.71 0.57 0.11 0.1 -0.11 0.31 -0.47c0,0 -0.3,-0.97 -1.13,-1.6l-0.01 0c-0.31,-0.24 -0.7,-0.43 -1.18,-0.5 -0.25,-0.04 -0.52,-0.05 -0.81,-0.01 0,0 -0.23,0.06 -0.6,0.2 -0.2,0.07 -0.44,0.16 -0.7,0.28 -0.77,0.32 -0.98,0.42 -0.98,0.42 0,0 -0.81,-0.8 -1.02,-1.29 0,0 -0.42,0.05 -0.52,0.39z"/>
   <path fill="#97B3D1" fill-rule="nonzero" d="M7.34 3.13c0,0.39 0.09,0.77 0.12,1.06l-0.64 -0.13 -1.01 1c0,0 -0.13,0.29 0.13,0.34 0.21,0.04 1.16,0.17 1.16,0.17 0.22,0.3 0.31,0.75 0.42,1.19l0.59 -2.05 -0.77 -1.58z"/>
   <path fill="#CDD8E9" fill-rule="nonzero" d="M5.91 3.22c0.45,-0.11 0.68,-0.52 0.81,-0.88 -0.25,-0.04 -0.52,-0.05 -0.81,-0.01 0,0 -0.23,0.06 -0.6,0.2 -0.04,0.32 -0.03,0.85 0.6,0.69z"/>
   <path fill="#97B3D1" fill-rule="nonzero" d="M4.72 3.58c0,0 0.1,0.38 0.13,0.71 0.29,-0.01 0.43,-0.06 0.44,-0.06 0,0 0,0 0,0 0,0 -0.25,-0.44 -0.57,-0.65z"/>
   <path fill="#F2F4F9" fill-rule="nonzero" d="M5.85 5.22l1.12 0.16c0.04,0.01 0.07,-0.01 0.07,-0.05l0.25 -1.71c0,-0.03 -0.02,-0.06 -0.05,-0.07l-1.13 -0.16c-0.03,0 -0.06,0.02 -0.06,0.05l-0.25 1.71c-0.01,0.04 0.02,0.07 0.05,0.07z"/>
   <path fill="#C4BBE6" fill-rule="nonzero" d="M6.67 4.13l-0.18 -0.06c0,0 -0.16,-0.46 -0.36,-0.17 0,0 -0.14,-0.09 -0.14,-0.13 0,-0.05 0.01,-0.12 0.01,-0.12 0,0 -0.29,0.07 -0.22,0.46 0.06,0.4 0.3,0.35 0.54,0.35l0.3 0.12 0.05 -0.45z"/>
   <path fill="#C1CFE4" fill-rule="nonzero" d="M6.56 4.69c-0.12,-0.03 1.44,0.48 1.91,0.45 0.44,0.01 0.58,-0.38 0.57,-0.7 0,0 -0.3,-0.97 -1.13,-1.6l-0.01 0c-0.27,-0.13 -0.56,-0.08 -0.58,0.17 -0.03,0.61 0.49,0.99 0.56,1.26l-1.21 -0.24c0,0 -0.19,0.21 -0.11,0.66z"/>
   <path fill="#4B4463" fill-rule="nonzero" d="M4.98 1.4c0,0 -0.19,-0.41 -0.11,-0.65 0.08,-0.23 0.29,-0.13 0.29,-0.13 0,0 0.1,-0.59 0.62,-0.34 0,0 0.02,-0.18 0.14,-0.15 0.11,0.03 0.25,0.34 0.25,0.34 0,0 0.08,-0.2 0.15,-0.13 0.08,0.06 0.06,0.27 0.21,0.4 0.15,0.14 0.23,0.29 0.02,0.67 -0.21,0.38 -0.12,0.43 -0.21,0.63 -0.08,0.19 -0.14,0.3 -0.26,0.29 -0.13,-0.01 -0.51,-0.6 -0.51,-0.6l-0.59 -0.33z"/>
   <path fill="#C4BBE6" fill-rule="nonzero" d="M6.4 2.36c0,0 -0.3,0.73 -0.76,0.61 -0.16,-0.04 -0.16,-0.21 -0.14,-0.33 0.02,-0.14 0.11,-0.3 0.04,-0.39l0.49 -0.47 0.1 -0.1c0,0 0.05,0.31 0.27,0.68z"/>
   <path fill="#799CBF" fill-rule="nonzero" d="M5.5 2.64c0.02,-0.14 0.11,-0.3 0.04,-0.39l0.49 -0.47c0.02,0.04 0.03,0.12 0.02,0.22 -0.06,0.57 -0.38,0.65 -0.55,0.64z"/>
   <path fill="#C4BBE6" fill-rule="nonzero" d="M5 1.11c0,0 -0.08,0.96 0.27,1.25 0.3,0.25 0.81,-0.23 0.86,-0.51 0,0 0.16,-0.08 0.17,-0.27 0.01,-0.19 -0.19,-0.16 -0.27,0.12 0,0 -0.15,-0.04 -0.11,-0.41 -0.11,0.07 -0.21,0.02 -0.31,-0.1 0,0 -0.09,0.19 -0.33,-0.1 0,0 -0.13,0.13 -0.28,0.02z"/>
   <path fill="#9ABCED" fill-rule="nonzero" d="M0.3 2.57l1.71 0c0.07,0 0.12,-0.05 0.12,-0.12l0 -2.17c0,-0.06 -0.05,-0.12 -0.12,-0.12l-1.71 0c-0.07,0 -0.12,0.06 -0.12,0.12l0 2.17c0,0.07 0.05,0.12 0.12,0.12z"/>
   <path fill="#4F7EB6" fill-rule="nonzero" d="M0.14 2.46l1.72 0c0.08,0 0.15,-0.07 0.15,-0.14l0 -2.18c0,-0.08 -0.07,-0.14 -0.15,-0.14l-1.72 0c-0.08,0 -0.14,0.06 -0.14,0.14l0 2.18c0,0.07 0.06,0.14 0.14,0.14zm1.72 -2.41l0 0c0.05,0 0.1,0.04 0.1,0.09l0 2.18c0,0.05 -0.05,0.09 -0.1,0.09l-1.72 0c-0.05,0 -0.09,-0.04 -0.09,-0.09l0 -2.18c0,-0.05 0.04,-0.09 0.09,-0.09l1.72 0z"/>
   <path fill="#7CA5D8" fill-rule="nonzero" d="M1.29 0.81c0,0.16 0.14,0.3 0.31,0.3 0.16,0 0.3,-0.14 0.3,-0.3 0,-0.17 -0.14,-0.31 -0.3,-0.31 -0.17,0 -0.31,0.14 -0.31,0.31z"/>
   <path fill="#E83F54" fill-rule="nonzero" d="M1.52 0.77l-0.2 -0.36c-0.19,0.04 -0.28,0.22 -0.19,0.4l0.39 -0.04z"/>
   <path fill="#9ABCED" fill-rule="nonzero" d="M1.71 1.44c0,0.04 0.04,0.08 0.08,0.08 0.05,0 0.09,-0.04 0.09,-0.08 0,-0.05 -0.04,-0.09 -0.09,-0.09 -0.04,0 -0.08,0.04 -0.08,0.09z"/>
   <path fill="#9ABCED" fill-rule="nonzero" d="M1.71 1.83c0,0.04 0.04,0.08 0.08,0.08 0.05,0 0.09,-0.04 0.09,-0.08 0,-0.05 -0.04,-0.09 -0.09,-0.09 -0.04,0 -0.08,0.04 -0.08,0.09z"/>
   <path fill="#9ABCED" fill-rule="nonzero" d="M0.56 1.52l0.7 0c0.05,0 0.09,-0.04 0.09,-0.08 0,-0.05 -0.04,-0.09 -0.09,-0.09l-0.7 0c-0.05,0 -0.09,0.04 -0.09,0.09 0,0.04 0.04,0.08 0.09,0.08z"/>
   <path fill="#9ABCED" fill-rule="nonzero" d="M0.56 1.91l0.7 0c0.05,0 0.09,-0.04 0.09,-0.08 0,-0.05 -0.04,-0.09 -0.09,-0.09l-0.7 0c-0.05,0 -0.09,0.04 -0.09,0.09 0,0.04 0.04,0.08 0.09,0.08z"/>
   <path fill="#9ABCED" fill-rule="nonzero" d="M1.71 2.22c0,0.05 0.04,0.09 0.08,0.09 0.05,0 0.09,-0.04 0.09,-0.09 0,-0.05 -0.04,-0.09 -0.09,-0.09 -0.04,0 -0.08,0.04 -0.08,0.09z"/>
   <path fill="#9ABCED" fill-rule="nonzero" d="M0.56 2.31l0.7 0c0.05,0 0.09,-0.04 0.09,-0.09 0,-0.05 -0.04,-0.09 -0.09,-0.09l-0.7 0c-0.05,0 -0.09,0.04 -0.09,0.09 0,0.05 0.04,0.09 0.09,0.09z"/>
  </g>
 </g>
</svg>
